PathFileType	4	(X/Y/Z)	SUB01_off_static_1_1707858583308
DataRate	CameraRate	NumFrames	NumMarkers	Units	OrigDataRate	OrigDataStartFrame	OrigNumFrames
150.00	150.00	       4	71	mm  	150.00	76	       150
Frame#	Time	CLAV			STRN			C7			T10			RSHO			LSHO			RUPA			REL			REM			RFRA			RWL			RWM			LUPA			LEL			LEM			LFRA			LWL			LWM			R.ASIS			L.ASIS			R.PSIS			L.PSIS			R.GTR			R.Knee			R.HF			R.TT			R.Ankle			R.Heel			R.MT1			R.MT5			L.GTR			L.Knee			L.HF			L.TT			L.Ankle			L.Heel			L.MT1			L.MT5			R.Knee.Medial			R.Ankle.Medial			R.MT2			L.Knee.Medial			L.Ankle.Medial			L.MT2			V_Mid_ASIS			V_Mid_PSIS			V_Pelvis_Origin			V_R.Hip_JC			V_R.Knee_JC_Static			V_R.TT			V_R.Ankle_JC			V_L.Hip_JC			V_Mid_Hip			V_R.MT2			V_R.Knee.Medial			V_R.Ankle.Medial			V_R.TT			V_L.Knee_JC_Static			V_L.TT			V_L.Ankle_JC			V_L.MT2			V_L.Knee.Medial			V_L.Ankle.Medial			V_R.Knee_JC2			V_R.Knee2			V_R.Knee_JC_Dynamic			V_R.Ankle_JC_Dynamic			V_L.Knee_JC_Dynamic			V_L.Ankle_JC_Dynamic			V_R.TT2			V_L.TT2			
		X1	Y1	Z1	X2	Y2	Z2	X3	Y3	Z3	X4	Y4	Z4	X5	Y5	Z5	X6	Y6	Z6	X7	Y7	Z7	X8	Y8	Z8	X9	Y9	Z9	X10	Y10	Z10	X11	Y11	Z11	X12	Y12	Z12	X13	Y13	Z13	X14	Y14	Z14	X15	Y15	Z15	X16	Y16	Z16	X17	Y17	Z17	X18	Y18	Z18	X19	Y19	Z19	X20	Y20	Z20	X21	Y21	Z21	X22	Y22	Z22	X23	Y23	Z23	X24	Y24	Z24	X25	Y25	Z25	X26	Y26	Z26	X27	Y27	Z27	X28	Y28	Z28	X29	Y29	Z29	X30	Y30	Z30	X31	Y31	Z31	X32	Y32	Z32	X33	Y33	Z33	X34	Y34	Z34	X35	Y35	Z35	X36	Y36	Z36	X37	Y37	Z37	X38	Y38	Z38	X39	Y39	Z39	X40	Y40	Z40	X41	Y41	Z41	X42	Y42	Z42	X43	Y43	Z43	X44	Y44	Z44	X45	Y45	Z45	X46	Y46	Z46	X47	Y47	Z47	X48	Y48	Z48	X49	Y49	Z49	X50	Y50	Z50	X51	Y51	Z51	X52	Y52	Z52	X53	Y53	Z53	X54	Y54	Z54	X55	Y55	Z55	X56	Y56	Z56	X57	Y57	Z57	X58	Y58	Z58	X59	Y59	Z59	X60	Y60	Z60	X61	Y61	Z61	X62	Y62	Z62	X63	Y63	Z63	X64	Y64	Z64	X65	Y65	Z65	X66	Y66	Z66	X67	Y67	Z67	X68	Y68	Z68	X69	Y69	Z69	X70	Y70	Z70	X71	Y71	Z71	
76	0.500000	968.568909	1390.152832	587.985535	974.583557	1230.532959	581.522705	835.868958	1488.488647	587.811279	740.669312	1233.411621	565.263855	839.105774	1480.765503	732.638184	872.252625	1495.129028	443.493408	874.518921	1462.411255	911.845581	907.804688	1472.882324	1005.484985	936.565430	1372.816040	1016.262268	943.702515	1473.671265	1172.335327	1019.289307	1435.535400	1251.158203	954.566711	1465.766479	1271.112549	942.270874	1479.070068	276.738586	996.428467	1490.482056	167.663773	1008.510254	1388.531738	153.491898	1027.805420	1477.684570	23.676861	1127.274170	1433.791382	-42.445419	1063.222168	1461.354492	-70.015312	961.330688	943.036560	679.372131	959.768066	935.350464	471.543610	760.508484	1010.047241	605.132019	765.792114	1008.778564	526.209290	858.398071	883.125061	753.696777	862.337097	512.344177	730.678223	863.812744	441.008179	732.547485	906.637573	397.887329	681.552490	781.625977	93.231331	725.013733	724.837036	49.791683	681.580200	927.060486	43.087109	676.626526	888.883911	30.983587	761.610901	874.015320	882.691345	394.208405	868.907227	497.301025	434.024536	874.949097	438.860840	437.019043	916.786011	393.307007	483.949768	781.288696	76.723389	462.559540	733.323547	53.617397	512.997375	942.545288	40.136341	497.949219	889.546692	33.130970	422.910583	869.953064	501.840698	601.188049	807.942932	94.634781	640.747009	928.923279	38.830345	715.997925	889.804565	499.530396	563.784668	817.615051	80.102219	546.293091	932.452393	38.791473	459.079468	0.000000	0.000000	0.000000	0.000000	0.000000	0.000000	0.000000	0.000000	0.000000	0.000000	0.000000	0.000000	0.000000	0.000000	0.000000	0.000000	0.000000	0.000000	0.000000	0.000000	0.000000	0.000000	0.000000	0.000000	0.000000	0.000000	0.000000	0.000000	0.000000	0.000000	0.000000	0.000000	0.000000	0.000000	0.000000	0.000000	0.000000	0.000000	0.000000	0.000000	0.000000	0.000000	0.000000	0.000000	0.000000	0.000000	0.000000	0.000000	0.000000	0.000000	0.000000	0.000000	0.000000	0.000000	0.000000	0.000000	0.000000	0.000000	0.000000	0.000000	0.000000	0.000000	0.000000	0.000000	0.000000	0.000000	0.000000	0.000000	0.000000	0.000000	0.000000	0.000000	0.000000	0.000000	0.000000	0.000000	0.000000	0.000000	0.000000	0.000000	0.000000	
77	0.506667	968.578247	1390.140381	587.983154	974.614990	1230.513062	581.532288	835.925659	1488.487915	587.808533	740.707825	1233.419556	565.250549	839.171570	1480.769165	732.629639	872.317261	1495.116943	443.484558	874.594482	1462.429688	911.833923	907.881958	1472.889282	1005.468994	936.578247	1372.808594	1016.269287	943.797363	1473.693237	1172.321167	1019.376099	1435.528809	1251.138794	954.661011	1465.799805	1271.103760	942.316406	1479.022949	276.720062	996.472717	1490.408691	167.650024	1008.514954	1388.449707	153.472122	1027.847412	1477.586060	23.661068	1127.312378	1433.682373	-42.446156	1063.261475	1461.228516	-70.036263	961.348633	943.029663	679.369568	959.783813	935.341064	471.542206	760.531738	1010.053833	605.132751	765.836670	1008.775940	526.212891	858.409302	883.126648	753.696655	862.341187	512.344666	730.683105	863.816589	441.008301	732.551453	906.641174	397.887238	681.558960	781.625610	93.232368	725.015259	724.837158	49.792458	681.580444	927.060181	43.087437	676.627502	888.884338	30.982626	761.609802	874.024109	882.685669	394.212616	868.916260	497.294800	434.033875	874.957214	438.858063	437.022217	916.794495	393.302094	483.952484	781.288879	76.721817	462.561737	733.322632	53.615528	512.998962	942.544556	40.136654	497.949493	889.546387	33.130962	422.911316	869.963501	501.841309	601.194519	807.945251	94.636414	640.749146	928.923340	38.830414	715.998535	889.807129	499.522644	563.792603	817.614380	80.099876	546.294556	932.451965	38.791649	459.080231	0.000000	0.000000	0.000000	0.000000	0.000000	0.000000	0.000000	0.000000	0.000000	0.000000	0.000000	0.000000	0.000000	0.000000	0.000000	0.000000	0.000000	0.000000	0.000000	0.000000	0.000000	0.000000	0.000000	0.000000	0.000000	0.000000	0.000000	0.000000	0.000000	0.000000	0.000000	0.000000	0.000000	0.000000	0.000000	0.000000	0.000000	0.000000	0.000000	0.000000	0.000000	0.000000	0.000000	0.000000	0.000000	0.000000	0.000000	0.000000	0.000000	0.000000	0.000000	0.000000	0.000000	0.000000	0.000000	0.000000	0.000000	0.000000	0.000000	0.000000	0.000000	0.000000	0.000000	0.000000	0.000000	0.000000	0.000000	0.000000	0.000000	0.000000	0.000000	0.000000	0.000000	0.000000	0.000000	0.000000	0.000000	0.000000	0.000000	0.000000	0.000000	
78	0.513333	968.600281	1390.126953	587.982605	974.648010	1230.494507	581.541443	835.980957	1488.486938	587.805969	740.746887	1233.427124	565.233582	839.242554	1480.772095	732.621094	872.381897	1495.104614	443.475006	874.677124	1462.446045	911.821716	907.963928	1472.892700	1005.452026	936.588745	1372.796997	1016.276550	943.896301	1473.711060	1172.307129	1019.461121	1435.514282	1251.120850	954.755676	1465.828613	1271.095581	942.362427	1478.975464	276.701172	996.516235	1490.332642	167.634903	1008.514526	1388.365356	153.450287	1027.892700	1477.485474	23.645164	1127.349609	1433.571167	-42.446873	1063.300293	1461.101196	-70.057648	961.364807	943.022827	679.367371	959.800964	935.330261	471.541534	760.548706	1010.059143	605.128540	765.890564	1008.769165	526.214233	858.417969	883.128357	753.695801	862.345215	512.344788	730.688049	863.820251	441.008026	732.555542	906.644653	397.886963	681.565552	781.625183	93.233040	725.016846	724.837158	49.792927	681.580688	927.059875	43.087841	676.628906	888.884888	30.981960	761.609436	874.036133	882.677917	394.215698	868.934021	497.286224	434.044342	874.971741	438.854156	437.026093	916.807678	393.295898	483.956573	781.289917	76.720451	462.564270	733.322083	53.614090	513.000732	942.544067	40.136795	497.950226	889.546326	33.131012	422.912567	869.973694	501.841278	601.201050	807.947815	94.637589	640.751343	928.923218	38.830540	715.999207	889.813904	499.513519	563.802124	817.613953	80.097305	546.296692	932.451843	38.791817	459.081360	0.000000	0.000000	0.000000	0.000000	0.000000	0.000000	0.000000	0.000000	0.000000	0.000000	0.000000	0.000000	0.000000	0.000000	0.000000	0.000000	0.000000	0.000000	0.000000	0.000000	0.000000	0.000000	0.000000	0.000000	0.000000	0.000000	0.000000	0.000000	0.000000	0.000000	0.000000	0.000000	0.000000	0.000000	0.000000	0.000000	0.000000	0.000000	0.000000	0.000000	0.000000	0.000000	0.000000	0.000000	0.000000	0.000000	0.000000	0.000000	0.000000	0.000000	0.000000	0.000000	0.000000	0.000000	0.000000	0.000000	0.000000	0.000000	0.000000	0.000000	0.000000	0.000000	0.000000	0.000000	0.000000	0.000000	0.000000	0.000000	0.000000	0.000000	0.000000	0.000000	0.000000	0.000000	0.000000	0.000000	0.000000	0.000000	0.000000	0.000000	0.000000	
79	0.520000	968.635376	1390.112427	587.983826	974.682373	1230.477295	581.550049	836.034668	1488.485474	587.803711	740.786194	1233.434326	565.213684	839.317261	1480.774048	732.612793	872.445923	1495.092529	443.465515	874.764954	1462.458740	911.809570	908.048523	1472.892090	1005.434692	936.600769	1372.782104	1016.282837	943.997253	1473.723267	1172.293579	1019.544067	1435.492676	1251.105103	954.849365	1465.850464	1271.087769	942.409668	1478.928833	276.683319	996.559204	1490.255981	167.619247	1008.512207	1388.281128	153.428726	1027.941528	1477.385376	23.630077	1127.386108	1433.460205	-42.447075	1063.339478	1460.976074	-70.077911	961.378845	943.015686	679.365967	959.819763	935.318176	471.541992	760.559326	1010.062866	605.119568	765.951782	1008.758667	526.213196	858.423950	883.129883	753.694397	862.348999	512.344543	730.692749	863.823547	441.007385	732.559692	906.647949	397.886444	681.572021	781.624756	93.233292	725.018311	724.836975	49.793110	681.580994	927.059570	43.088303	676.630554	888.885620	30.981651	761.609619	874.051880	882.668396	394.217621	868.961121	497.275269	434.055634	874.992737	438.849182	437.030579	916.825256	393.288513	483.962036	781.291931	76.719315	462.566925	733.321838	53.613163	513.002502	942.543823	40.136757	497.951447	889.546570	33.131100	422.914307	869.983093	501.840637	601.207397	807.950623	94.638252	640.753540	928.922974	38.830723	716.000061	889.825256	499.503204	563.812805	817.613892	80.094582	546.299438	932.452148	38.791973	459.082855	0.000000	0.000000	0.000000	0.000000	0.000000	0.000000	0.000000	0.000000	0.000000	0.000000	0.000000	0.000000	0.000000	0.000000	0.000000	0.000000	0.000000	0.000000	0.000000	0.000000	0.000000	0.000000	0.000000	0.000000	0.000000	0.000000	0.000000	0.000000	0.000000	0.000000	0.000000	0.000000	0.000000	0.000000	0.000000	0.000000	0.000000	0.000000	0.000000	0.000000	0.000000	0.000000	0.000000	0.000000	0.000000	0.000000	0.000000	0.000000	0.000000	0.000000	0.000000	0.000000	0.000000	0.000000	0.000000	0.000000	0.000000	0.000000	0.000000	0.000000	0.000000	0.000000	0.000000	0.000000	0.000000	0.000000	0.000000	0.000000	0.000000	0.000000	0.000000	0.000000	0.000000	0.000000	0.000000	0.000000	0.000000	0.000000	0.000000	0.000000	0.000000	
